<svg version="1.1" xmlns="http://www.w3.org/2000/svg" xmlns:xlink="http://www.w3.org/1999/xlink" x="0" y="0" width="893.3" height="736.7" viewBox="0 0 893.3 736.7" enable-background="new 0 0 893.256 736.666" xml:space="preserve"><polygon fill="#010202" points="373 438.3 373 289.7 465.7 289.7 465.7 312.4 399.4 312.4 399.4 355.8 460 355.8 460 378.1 399.4 378.1 399.4 438.3 "/><rect x="483.9" y="279" fill="#010202" width="25.7" height="159.3"/><defs><rect y="0" width="893.3" height="736.7"/></defs><clipPath><use xlink:href="#SVGID_1_" overflow="visible"/></clipPath><polygon clip-path="url(#SVGID_2_)" fill="#FFCB00" points="298.4 438.3 156.5 438.3 298.4 736.7 447.6 587.5 "/><polygon clip-path="url(#SVGID_2_)" fill="#008966" points="298.4 139.9 149.2 139.9 149.2 438.3 298.4 438.3 "/><path clip-path="url(#SVGID_2_)" fill="#010202" d="M531.2 387.9v-14.6c0-33.5 21.7-52.4 50.1-52.4 29.2 0 49.8 20.1 49.8 52.4v13.4h-74.5v5.6c0 15.8 9.7 27.2 26 27.2 12.3 0 20.9-5.8 22.4-13h24.8c-1.3 13.8-15.5 33.8-47.2 33.8S531.2 421.2 531.2 387.9M606.1 370v-1.3c0-16.4-9.8-27.3-24.6-27.3 -14.9 0-24.8 10.9-24.8 27.3v1.3H606.1z"/><polygon clip-path="url(#SVGID_2_)" fill="#010202" points="692.4 398.5 691.4 398.5 667.5 438.3 639.7 438.3 676.4 381 638.8 323 668.8 323 692.2 362.6 693.3 362.6 717.3 323 745.9 323 707.7 379.8 745.6 438.3 716.3 438.3 "/><path clip-path="url(#SVGID_2_)" fill="#FFCB00" d="M0 565.1c0 12.3 7.1 15.3 15.8 6.6l58.8-58.8v-74.6H0v126.8H0z"/><polygon clip-path="url(#SVGID_2_)" fill="#E63323" points="298.4 438.3 149.2 289.1 74.6 512.9 149.2 587.5 "/><path clip-path="url(#SVGID_2_)" fill="#D73526" d="M149.2 415.9V289.1L0 438.3l74.6 74.6 58.7-58.8C142.1 445.4 149.2 428.2 149.2 415.9"/><path clip-path="url(#SVGID_2_)" fill="#144580" d="M431.7 155.7c8.7-8.7 8.7-23 0-31.7L314.3 6.5c-8.7-8.7-23-8.7-31.7 0L149.2 139.9l149.2 149.2L431.7 155.7z"/><polygon clip-path="url(#SVGID_2_)" fill="#009972" points="208.8 497.9 149.2 587.5 298.4 736.7 298.4 587.5 "/><path clip-path="url(#SVGID_2_)" fill="#008966" d="M165.1 454.1c-8.7-8.7-15.9-5.7-15.9 6.6v126.8l74.6-74.6L165.1 454.1z"/><path clip-path="url(#SVGID_2_)" d="M767.2 424.8c4 0 7.1 2.9 7.1 7 0 4.1-3.1 6.9-7.1 6.9 -3.8 0-7-2.8-7-6.9C760.2 427.6 763.3 424.8 767.2 424.8"/><path clip-path="url(#SVGID_2_)" d="M797.5 416.9c0 8.3 5 13 12.7 13s12.8-4.8 12.8-13v-37.1h10.3v37.9c0 12.8-9.1 21.3-23.1 21.3 -13.9 0-23-8.5-23-21.4v-37.8h10.3V416.9z"/><path clip-path="url(#SVGID_2_)" d="M842 437.9l19.8-58.1h11.7l19.8 58.1h-11l-4.9-15.4h-20l-5 15.4H842zM867.1 390.4l-7.6 24h15.6l-7.5-24H867.1z"/></svg>